<svg width="465" height="346" viewBox="0 0 465 346" fill="none" xmlns="http://www.w3.org/2000/svg">
<rect width="465" height="346" fill="#242424"/>
<circle cx="231.756" cy="101.845" r="60.8453" fill="#9EDE80" fill-opacity="0.15"/>
<path fill-rule="evenodd" clip-rule="evenodd" d="M231.909 65.4863C245.106 65.4863 255.805 76.1846 255.805 89.3835C255.805 101.308 238.802 126.264 231.909 138.204C225.014 126.264 208.012 101.309 208.012 89.3835C208.012 76.1846 218.71 65.4863 231.909 65.4863ZM231.909 77.7266C238.346 77.7266 243.564 82.9452 243.564 89.3835C243.564 95.8204 238.346 101.039 231.909 101.039C225.471 101.039 220.252 95.8204 220.252 89.3835C220.252 82.9452 225.471 77.7266 231.909 77.7266Z" fill="#6CC04A"/>
<circle cx="153.845" cy="243.571" r="60.8453" fill="#58ACDB" fill-opacity="0.15"/>
<path d="M153.845 207.212C146.654 207.212 139.624 209.344 133.645 213.339C127.666 217.335 123.006 223.013 120.254 229.657C117.502 236.3 116.782 243.611 118.185 250.664C119.588 257.717 123.051 264.195 128.136 269.28C133.22 274.365 139.699 277.828 146.752 279.231C153.805 280.634 161.115 279.914 167.759 277.162C174.403 274.41 180.081 269.75 184.076 263.771C188.071 257.791 190.204 250.762 190.204 243.571C190.193 233.931 186.359 224.689 179.543 217.873C172.726 211.057 163.485 207.223 153.845 207.212V207.212ZM153.845 274.665C149.431 274.662 145.068 273.712 141.052 271.879V270.174L143.496 265.259C143.583 265.082 143.628 264.889 143.629 264.692C143.631 264.496 143.588 264.301 143.504 264.124L142.135 261.464C142.055 261.307 141.944 261.167 141.809 261.053C141.674 260.939 141.518 260.853 141.35 260.8C141.237 260.765 141.12 260.747 141.003 260.747C140.772 260.749 140.545 260.813 140.348 260.933L136.509 263.179L134.253 261.535C134.031 261.372 133.764 261.285 133.489 261.284H129.104L127.574 260.133C125.329 256.584 123.832 252.614 123.175 248.466L126.179 245.557L129.798 243.301C130.057 243.143 130.25 242.898 130.345 242.61C130.44 242.323 130.43 242.011 130.316 241.73L128.408 237.266L131.55 232.178C131.688 231.959 131.754 231.703 131.74 231.444C131.725 231.186 131.631 230.938 131.47 230.736L128.032 226.258C130.564 222.483 133.893 219.31 137.783 216.96C141.674 214.61 146.032 213.14 150.552 212.655L150.595 212.916L149.505 215.152L146.887 214.475C146.788 214.445 146.686 214.43 146.582 214.43C146.343 214.433 146.109 214.501 145.905 214.626L140.658 218.043C140.401 218.204 140.217 218.461 140.146 218.756L138.597 224.706C138.518 224.982 138.538 225.278 138.654 225.541C138.77 225.805 138.974 226.019 139.232 226.148L145.003 229.2C145.185 229.299 145.388 229.352 145.596 229.353C145.785 229.351 145.972 229.308 146.144 229.227C146.315 229.146 146.467 229.03 146.59 228.885L150.174 224.45L152.769 223.761L155.853 225.908C156.056 226.057 156.301 226.137 156.553 226.136C156.73 226.135 156.904 226.096 157.065 226.024L161.217 224.287C161.406 224.208 161.574 224.086 161.706 223.93C161.839 223.774 161.933 223.589 161.981 223.39L162.915 219.587C162.977 219.324 162.959 219.047 162.861 218.794L161.85 216.482L163.693 214.101C166.108 214.911 168.413 216.017 170.557 217.392L168.284 219.754C168.072 219.977 167.948 220.269 167.935 220.577C167.921 220.884 168.02 221.186 168.212 221.427L170.349 224.093C170.447 224.222 170.57 224.33 170.711 224.41L174.573 226.571L176.054 230.657L173.142 230.012C173.049 229.994 172.956 229.985 172.862 229.985C172.564 229.983 172.276 230.092 172.054 230.29L170.132 231.839L168.209 231.413L166.539 229.469C166.418 229.334 166.269 229.226 166.102 229.153C165.935 229.081 165.754 229.045 165.573 229.048H158.438C158.27 229.047 158.103 229.08 157.948 229.146C157.793 229.213 157.654 229.31 157.539 229.433L154.366 232.636L149.081 234.183C148.903 234.229 148.738 234.316 148.598 234.436C148.459 234.556 148.348 234.706 148.275 234.874L145.201 241.706C145.126 241.867 145.087 242.043 145.087 242.222V246.359C145.085 246.54 145.122 246.72 145.194 246.886C145.267 247.053 145.374 247.201 145.509 247.323L148.461 249.995C148.685 250.203 148.981 250.317 149.287 250.315C149.422 250.315 149.557 250.293 149.686 250.25L154.043 248.9L156.636 249.908V253.136C156.635 253.342 156.685 253.545 156.781 253.727C156.878 253.909 157.018 254.065 157.189 254.179L160.874 256.768V262.149C160.88 262.365 160.942 262.576 161.053 262.761L164.756 269.585C164.839 269.746 164.954 269.887 165.095 270.001C165.235 270.114 165.398 270.197 165.572 270.245H165.877C166.054 270.247 166.229 270.213 166.392 270.144C166.556 270.075 166.702 269.972 166.824 269.843L173.117 263.012C173.267 262.845 173.37 262.642 173.418 262.423L174.127 259.005L176.088 256.107L180.088 253.108C180.245 252.983 180.372 252.826 180.46 252.646C180.549 252.466 180.596 252.27 180.6 252.069V249.05C180.602 248.868 180.564 248.689 180.489 248.524C180.413 248.359 180.302 248.212 180.163 248.096L177.732 245.939V244.395L179.653 242.137L182.112 245.466C182.23 245.626 182.384 245.757 182.562 245.847C182.74 245.937 182.936 245.983 183.135 245.984C183.373 245.984 183.605 245.915 183.804 245.785L184.863 245.079C184.473 253.048 181.037 260.562 175.264 266.068C169.491 271.574 161.823 274.652 153.845 274.665V274.665Z" fill="#58ACDB"/>
<circle cx="310.411" cy="243.571" r="60.8453" fill="#DA5F5C" fill-opacity="0.15"/>
<path d="M310.101 207.212C302.971 207.212 296.002 209.326 290.073 213.287C284.145 217.249 279.524 222.879 276.796 229.466C274.067 236.053 273.353 243.301 274.744 250.294C276.135 257.287 279.569 263.711 284.61 268.752C289.652 273.794 296.076 277.227 303.068 278.618C310.061 280.009 317.31 279.295 323.897 276.567C330.484 273.838 336.114 269.218 340.076 263.29C344.037 257.361 346.151 250.391 346.151 243.262C346.14 233.704 342.338 224.541 335.58 217.783C328.822 211.025 319.659 207.223 310.101 207.212V207.212ZM310.101 266.202C309.453 266.202 308.82 266.01 308.281 265.65C307.742 265.29 307.322 264.778 307.074 264.179C306.826 263.58 306.761 262.921 306.887 262.286C307.014 261.65 307.326 261.066 307.784 260.608C308.242 260.149 308.826 259.837 309.462 259.711C310.098 259.584 310.757 259.649 311.356 259.897C311.954 260.145 312.466 260.565 312.826 261.104C313.186 261.643 313.379 262.277 313.379 262.925C313.379 263.794 313.033 264.628 312.419 265.242C311.804 265.857 310.971 266.202 310.101 266.202ZM317.134 246.984C316.04 247.612 315.123 248.505 314.466 249.581C313.81 250.658 313.436 251.883 313.379 253.142C313.366 254.003 313.015 254.824 312.402 255.428C311.788 256.032 310.962 256.371 310.101 256.37H310.052C309.622 256.364 309.197 256.273 308.802 256.102C308.407 255.932 308.049 255.685 307.749 255.376C307.449 255.067 307.213 254.702 307.055 254.302C306.896 253.902 306.818 253.474 306.824 253.044C306.904 250.695 307.569 248.402 308.761 246.376C309.953 244.35 311.633 242.654 313.647 241.443C314.796 240.715 315.687 239.645 316.194 238.384C316.702 237.122 316.8 235.733 316.476 234.413C316.198 233.259 315.604 232.204 314.76 231.369C313.917 230.533 312.857 229.948 311.701 229.681C310.223 229.331 308.67 229.511 307.312 230.189C305.954 230.868 304.878 232.002 304.271 233.394C304.108 233.801 303.865 234.172 303.556 234.483C303.247 234.795 302.878 235.041 302.472 235.207C302.066 235.374 301.631 235.457 301.192 235.452C300.753 235.447 300.32 235.354 299.917 235.178C299.515 235.003 299.152 234.748 298.851 234.43C298.549 234.111 298.314 233.735 298.16 233.324C298.006 232.913 297.936 232.476 297.955 232.037C297.973 231.599 298.079 231.169 298.267 230.772C299.082 228.904 300.323 227.254 301.892 225.954C303.46 224.653 305.312 223.739 307.298 223.285C309.284 222.831 311.349 222.85 313.327 223.339C315.305 223.829 317.14 224.776 318.685 226.104C320.23 227.432 321.442 229.104 322.223 230.986C323.004 232.868 323.332 234.907 323.181 236.939C323.03 238.971 322.404 240.939 321.354 242.685C320.304 244.431 318.859 245.906 317.134 246.991V246.984Z" fill="#DA5F5C"/>
</svg>
